<svg width="32" height="32" viewBox="0 0 32 32" fill="none" xmlns="http://www.w3.org/2000/svg">
<path d="M11 29.6667C10.2667 29.6667 9.63911 29.4058 9.11733 28.884C8.59467 28.3613 8.33333 27.7333 8.33333 27C8.33333 26.2667 8.59467 25.6387 9.11733 25.116C9.63911 24.5942 10.2667 24.3333 11 24.3333C11.7333 24.3333 12.3609 24.5942 12.8827 25.116C13.4053 25.6387 13.6667 26.2667 13.6667 27C13.6667 27.7333 13.4053 28.3613 12.8827 28.884C12.3609 29.4058 11.7333 29.6667 11 29.6667ZM24.3333 29.6667C23.6 29.6667 22.9724 29.4058 22.4507 28.884C21.928 28.3613 21.6667 27.7333 21.6667 27C21.6667 26.2667 21.928 25.6387 22.4507 25.116C22.9724 24.5942 23.6 24.3333 24.3333 24.3333C25.0667 24.3333 25.6947 24.5942 26.2173 25.116C26.7391 25.6387 27 26.2667 27 27C27 27.7333 26.7391 28.3613 26.2173 28.884C25.6947 29.4058 25.0667 29.6667 24.3333 29.6667ZM11 23C10 23 9.24444 22.5609 8.73333 21.6827C8.22222 20.8053 8.2 19.9333 8.66667 19.0667L10.4667 15.8L5.66667 5.66667H4.3C3.92222 5.66667 3.61111 5.53867 3.36667 5.28267C3.12222 5.02756 3 4.71111 3 4.33333C3 3.95556 3.128 3.63867 3.384 3.38267C3.63911 3.12756 3.95556 3 4.33333 3H6.5C6.74444 3 6.97778 3.06667 7.2 3.2C7.42222 3.33333 7.58889 3.52222 7.7 3.76667L8.6 5.66667H28.2667C28.8667 5.66667 29.2778 5.88889 29.5 6.33333C29.7222 6.77778 29.7111 7.24444 29.4667 7.73333L24.7333 16.2667C24.4889 16.7111 24.1667 17.0556 23.7667 17.3C23.3667 17.5444 22.9111 17.6667 22.4 17.6667H12.4667L11 20.3333H25.7C26.0778 20.3333 26.3889 20.4609 26.6333 20.716C26.8778 20.972 27 21.2889 27 21.6667C27 22.0444 26.872 22.3609 26.616 22.616C26.3609 22.872 26.0444 23 25.6667 23H11Z" fill="white"/>
</svg>
