<svg width="72" height="118" viewBox="0 0 72 118" fill="none" xmlns="http://www.w3.org/2000/svg">
<path d="M21.5176 112.483C20.0509 112.483 18.7958 111.961 17.7522 110.917C16.7069 109.872 16.1842 108.616 16.1842 107.149C16.1842 105.683 16.7069 104.427 17.7522 103.381C18.7958 102.338 20.0509 101.816 21.5176 101.816C22.9842 101.816 24.2394 102.338 25.2829 103.381C26.3282 104.427 26.8509 105.683 26.8509 107.149C26.8509 108.616 26.3282 109.872 25.2829 110.917C24.2394 111.961 22.9842 112.483 21.5176 112.483ZM48.1842 112.483C46.7176 112.483 45.4625 111.961 44.4189 110.917C43.3736 109.872 42.8509 108.616 42.8509 107.149C42.8509 105.683 43.3736 104.427 44.4189 103.381C45.4625 102.338 46.7176 101.816 48.1842 101.816C49.6509 101.816 50.9069 102.338 51.9522 103.381C52.9958 104.427 53.5176 105.683 53.5176 107.149C53.5176 108.616 52.9958 109.872 51.9522 110.917C50.9069 111.961 49.6509 112.483 48.1842 112.483ZM21.5176 99.1494C19.5176 99.1494 18.0065 98.2712 16.9842 96.5147C15.962 94.7601 15.9176 93.0161 16.8509 91.2827L20.4509 84.7494L10.8509 64.4827H8.11758C7.36202 64.4827 6.7398 64.2267 6.25091 63.7147C5.76202 63.2045 5.51758 62.5716 5.51758 61.8161C5.51758 61.0605 5.77358 60.4267 6.28558 59.9147C6.7958 59.4045 7.42869 59.1494 8.18424 59.1494H12.5176C13.0065 59.1494 13.4731 59.2827 13.9176 59.5494C14.362 59.8161 14.6954 60.1939 14.9176 60.6827L16.7176 64.4827H56.0509C57.2509 64.4827 58.0731 64.9272 58.5176 65.8161C58.962 66.705 58.9398 67.6383 58.4509 68.6161L48.9842 85.6827C48.4954 86.5716 47.8509 87.2605 47.0509 87.7494C46.2509 88.2383 45.3398 88.4827 44.3176 88.4827H24.4509L21.5176 93.8161H50.9176C51.6731 93.8161 52.2954 94.0712 52.7842 94.5814C53.2731 95.0934 53.5176 95.7272 53.5176 96.4827C53.5176 97.2383 53.2616 97.8712 52.7496 98.3814C52.2394 98.8934 51.6065 99.1494 50.8509 99.1494H21.5176Z" fill="#2D2C39"/>
<g clip-path="url(#clip0_24_127)">
<path d="M63.9321 42.2717C63.9347 42.169 63.9057 42.0681 63.849 41.9825C63.7923 41.8969 63.7105 41.8308 63.615 41.7933C63.5194 41.7558 63.4146 41.7486 63.3148 41.7727C63.2149 41.7968 63.125 41.8511 63.0571 41.9281L62.1348 42.9691C61.412 43.7855 60.5197 44.4343 59.5203 44.8701C58.5208 45.306 57.4382 45.5185 56.3481 45.4927L54.9587 45.4606C54.856 45.458 54.7551 45.487 54.6695 45.5437C54.5839 45.6004 54.5178 45.6821 54.4803 45.7777C54.4428 45.8733 54.4356 45.9781 54.4597 46.0779C54.4838 46.1778 54.5381 46.2677 54.6151 46.3356L55.6551 47.2575C56.4716 47.9803 57.1203 48.8726 57.5562 49.8721C57.9921 50.8715 58.2046 51.9541 58.1788 53.0442L58.1467 54.4336C58.1441 54.5363 58.1731 54.6373 58.2298 54.7229C58.2865 54.8084 58.3682 54.8745 58.4638 54.912C58.5594 54.9496 58.6642 54.9568 58.764 54.9326C58.8638 54.9085 58.9538 54.8542 59.0217 54.7772L59.9436 53.7372C60.6664 52.9208 61.5587 52.272 62.5581 51.8361C63.5576 51.4002 64.6402 51.1878 65.7303 51.2136L67.1206 51.246C67.2233 51.2486 67.3243 51.2196 67.4099 51.1629C67.4955 51.1062 67.5615 51.0245 67.599 50.9289C67.6366 50.8333 67.6438 50.7285 67.6196 50.6287C67.5955 50.5289 67.5412 50.4389 67.4642 50.371L66.4233 49.4487C65.6069 48.7259 64.9581 47.8337 64.5222 46.8342C64.0863 45.8347 63.8739 44.7521 63.8997 43.662L63.9321 42.2717Z" fill="black"/>
</g>
<g clip-path="url(#clip1_24_127)">
<path d="M18.5802 28.4831C18.4838 28.363 18.3527 28.2755 18.2048 28.2324C18.0569 28.1894 17.8994 28.1929 17.7536 28.2426C17.6077 28.2922 17.4808 28.3855 17.3898 28.5099C17.2989 28.6342 17.2485 28.7835 17.2454 28.9375L17.198 31.0231C17.1613 32.6582 16.7682 34.2657 16.0461 35.7332C15.324 37.2008 14.2902 38.493 13.017 39.5197L11.395 40.8292C11.2748 40.9256 11.1873 41.0567 11.1443 41.2046C11.1012 41.3525 11.1048 41.51 11.1544 41.6559C11.204 41.8017 11.2974 41.9287 11.4217 42.0196C11.546 42.1105 11.6953 42.1609 11.8493 42.164L13.9335 42.2119C15.5686 42.2486 17.1761 42.6417 18.6437 43.3638C20.1112 44.0859 21.4034 45.1197 22.4301 46.3929L23.7396 48.0149C23.8361 48.1351 23.9671 48.2226 24.115 48.2656C24.2629 48.3087 24.4205 48.3051 24.5663 48.2555C24.7121 48.2059 24.8391 48.1125 24.93 47.9882C25.0209 47.8639 25.0713 47.7146 25.0744 47.5606L25.1224 45.4764C25.159 43.8413 25.5521 42.2338 26.2742 40.7662C26.9963 39.2987 28.0301 38.0065 29.3033 36.9798L30.9268 35.6698C31.0469 35.5734 31.1344 35.4423 31.1775 35.2944C31.2205 35.1465 31.217 34.989 31.1673 34.8431C31.1177 34.6973 31.0244 34.5703 30.9 34.4794C30.7757 34.3885 30.6264 34.3381 30.4724 34.335L28.3868 34.2875C26.7517 34.2509 25.1442 33.8578 23.6767 33.1357C22.2091 32.4136 20.9169 31.3798 19.8902 30.1066L18.5802 28.4831Z" fill="black"/>
</g>
<path d="M51.1525 3.7898C51.0968 3.59214 50.9815 3.41643 50.8224 3.28657C50.6633 3.15671 50.4681 3.07898 50.2633 3.06395C50.0585 3.04892 49.854 3.09732 49.6776 3.20257C49.5013 3.30782 49.3616 3.46482 49.2776 3.65223L48.133 6.18727C47.2363 8.17517 45.9165 9.94339 44.2658 11.3685C42.615 12.7935 40.6731 13.8411 38.5756 14.438L35.9027 15.2005C35.705 15.2562 35.5293 15.3715 35.3994 15.5306C35.2696 15.6897 35.1919 15.8849 35.1768 16.0897C35.1618 16.2946 35.2102 16.499 35.3155 16.6754C35.4207 16.8517 35.5777 16.9914 35.7651 17.0754L38.2982 18.2199C40.2861 19.1165 42.0543 20.4363 43.4793 22.0871C44.9044 23.7378 45.952 25.6797 46.5489 27.7772L47.3113 30.4502C47.3671 30.6478 47.4824 30.8236 47.6415 30.9534C47.8006 31.0833 47.9958 31.161 48.2006 31.176C48.4054 31.1911 48.6099 31.1427 48.7863 31.0374C48.9626 30.9322 49.1023 30.7752 49.1863 30.5878L50.3307 28.0547C51.2274 26.0668 52.5472 24.2986 54.198 22.8735C55.8487 21.4484 57.7906 20.4009 59.8881 19.804L62.5631 19.0417C62.7607 18.9859 62.9364 18.8706 63.0663 18.7115C63.1962 18.5524 63.2739 18.3572 63.2889 18.1524C63.3039 17.9476 63.2555 17.7431 63.1503 17.5667C63.045 17.3904 62.888 17.2507 62.7006 17.1667L60.1656 16.0221C58.1777 15.1255 56.4095 13.8057 54.9844 12.1549C53.5593 10.5042 52.5118 8.56224 51.9148 6.46475L51.1525 3.7898Z" fill="black"/>
<defs>
<clipPath id="clip0_24_127">
<rect width="16" height="16" fill="white" transform="matrix(-0.930815 -0.365491 -0.365491 0.930815 71.4541 43.8478)"/>
</clipPath>
<clipPath id="clip1_24_127">
<rect width="24" height="24" fill="white" transform="matrix(-0.946653 0.322255 0.322255 0.946653 28.7197 23)"/>
</clipPath>
</defs>
</svg>
