<svg width="64" height="32" viewBox="0 0 64 32" fill="none" xmlns="http://www.w3.org/2000/svg">
<rect width="64" height="32" rx="5" fill="#F08080"/>
<path d="M35.6376 19.888C35.8723 20.1867 36.1923 20.5707 36.5976 21.04C37.0243 21.488 37.419 21.968 37.7816 22.48C38.1656 22.9707 38.475 23.4613 38.7096 23.952C38.9443 24.4427 39.0083 24.8693 38.9016 25.232C38.731 25.7867 38.411 26.1067 37.9416 26.192C37.4723 26.2773 36.9816 26.192 36.4696 25.936C36.107 25.7653 35.691 25.4667 35.2216 25.04C34.7523 24.6133 34.2936 24.1653 33.8456 23.696C33.419 23.2267 33.035 22.7893 32.6936 22.384C32.3523 21.9573 32.1176 21.6587 31.9896 21.488C31.9896 21.4667 31.979 21.456 31.9576 21.456C31.9576 21.456 31.9576 21.4453 31.9576 21.424C31.8083 21.5947 31.659 21.7867 31.5096 22C31.3603 22.192 31.2003 22.384 31.0296 22.576C30.8163 22.832 30.571 23.1413 30.2936 23.504C30.0376 23.8453 29.7496 24.1867 29.4296 24.528C29.131 24.8693 28.811 25.1893 28.4696 25.488C28.1496 25.7653 27.8296 25.968 27.5096 26.096C27.083 26.2667 26.667 26.2347 26.2616 26C25.8776 25.7867 25.6323 25.488 25.5256 25.104C25.3976 24.656 25.4296 24.1867 25.6216 23.696C25.8136 23.2053 26.0696 22.736 26.3896 22.288C26.7096 21.8187 27.051 21.3707 27.4136 20.944C27.7976 20.5173 28.107 20.144 28.3416 19.824C28.5763 19.5253 28.779 19.2693 28.9496 19.056C29.1416 18.8213 29.323 18.5973 29.4936 18.384C29.195 18.064 28.875 17.712 28.5336 17.328C28.1923 16.9227 27.7123 16.4 27.0936 15.76C26.8803 15.5253 26.6456 15.2693 26.3896 14.992C26.1336 14.6933 25.899 14.384 25.6856 14.064C25.4723 13.744 25.3016 13.4133 25.1736 13.072C25.0456 12.7307 25.0136 12.3787 25.0776 12.016C25.1416 11.696 25.2803 11.44 25.4936 11.248C25.707 11.0347 25.963 10.896 26.2616 10.832C26.5603 10.7467 26.8696 10.736 27.1896 10.8C27.5096 10.864 27.8083 10.992 28.0856 11.184C28.6403 11.5893 29.163 12.0907 29.6536 12.688C30.1443 13.2853 30.6243 13.8507 31.0936 14.384C31.243 14.576 31.3816 14.7573 31.5096 14.928C31.659 15.0773 31.7976 15.2267 31.9256 15.376C32.0323 15.2053 32.1603 15.0347 32.3096 14.864C32.4803 14.6933 32.651 14.4907 32.8216 14.256C33.2483 13.744 33.675 13.2107 34.1016 12.656C34.5496 12.1013 35.0403 11.6213 35.5736 11.216C35.851 11.0027 36.139 10.8747 36.4376 10.832C36.7576 10.768 37.0563 10.7787 37.3336 10.864C37.611 10.928 37.8563 11.056 38.0696 11.248C38.283 11.44 38.4216 11.6747 38.4856 11.952C38.571 12.2933 38.5603 12.6347 38.4536 12.976C38.3683 13.3173 38.219 13.648 38.0056 13.968C37.8136 14.288 37.5896 14.5973 37.3336 14.896C37.099 15.1733 36.875 15.4293 36.6616 15.664C36.171 16.1973 35.7443 16.6773 35.3816 17.104C35.019 17.5307 34.6776 17.936 34.3576 18.32C34.5496 18.5333 34.7416 18.768 34.9336 19.024C35.147 19.2587 35.3816 19.5467 35.6376 19.888Z" fill="white"/>
</svg>
