<svg width="128" height="128" viewBox="0 0 128 128" fill="none" xmlns="http://www.w3.org/2000/svg">
<path d="M43.0347 116.966C40.1013 116.966 37.5911 115.922 35.504 113.835C33.4133 111.744 32.368 109.232 32.368 106.299C32.368 103.366 33.4133 100.854 35.504 98.7628C37.5911 96.6757 40.1013 95.6322 43.0347 95.6322C45.968 95.6322 48.4782 96.6757 50.5653 98.7628C52.656 100.854 53.7013 103.366 53.7013 106.299C53.7013 109.232 52.656 111.744 50.5653 113.835C48.4782 115.922 45.968 116.966 43.0347 116.966ZM96.368 116.966C93.4347 116.966 90.9244 115.922 88.8373 113.835C86.7467 111.744 85.7013 109.232 85.7013 106.299C85.7013 103.366 86.7467 100.854 88.8373 98.7628C90.9244 96.6757 93.4347 95.6322 96.368 95.6322C99.3013 95.6322 101.813 96.6757 103.904 98.7628C105.991 100.854 107.035 103.366 107.035 106.299C107.035 109.232 105.991 111.744 103.904 113.835C101.813 115.922 99.3013 116.966 96.368 116.966ZM43.0347 90.2988C39.0347 90.2988 36.0124 88.5424 33.968 85.0295C31.9236 81.5202 31.8347 78.0322 33.7013 74.5655L40.9013 61.4989L21.7013 20.9655H16.2347C14.7236 20.9655 13.4791 20.4535 12.5013 19.4295C11.5236 18.4091 11.0347 17.1433 11.0347 15.6322C11.0347 14.1211 11.5467 12.8535 12.5707 11.8295C13.5911 10.8091 14.8569 10.2989 16.368 10.2989H25.0347C26.0124 10.2989 26.9458 10.5655 27.8347 11.0989C28.7236 11.6322 29.3902 12.3877 29.8347 13.3655L33.4347 20.9655H112.101C114.501 20.9655 116.146 21.8544 117.035 23.6322C117.924 25.41 117.879 27.2766 116.901 29.2322L97.968 63.3655C96.9902 65.1433 95.7013 66.5211 94.1013 67.4988C92.5013 68.4766 90.6791 68.9655 88.6347 68.9655H48.9013L43.0347 79.6322H101.835C103.346 79.6322 104.59 80.1424 105.568 81.1628C106.546 82.1868 107.035 83.4544 107.035 84.9655C107.035 86.4766 106.523 87.7424 105.499 88.7628C104.478 89.7868 103.212 90.2988 101.701 90.2988H43.0347Z" fill="#2D2C39"/>
</svg>
