<svg width="36" height="36" viewBox="0 0 36 36" fill="none" xmlns="http://www.w3.org/2000/svg">
<path d="M7.4998 9C7.07481 9 6.71831 8.8565 6.43031 8.5695C6.14331 8.2815 5.9998 7.925 5.9998 7.5C5.9998 7.075 6.14331 6.7185 6.43031 6.4305C6.71831 6.1435 7.07481 6 7.4998 6H28.4998C28.9248 6 29.2808 6.1435 29.5678 6.4305C29.8558 6.7185 29.9998 7.075 29.9998 7.5C29.9998 7.925 29.8558 8.2815 29.5678 8.5695C29.2808 8.8565 28.9248 9 28.4998 9H7.4998ZM7.4998 30C7.07481 30 6.71831 29.856 6.43031 29.568C6.14331 29.281 5.9998 28.925 5.9998 28.5V21H5.7373C5.2623 21 4.8748 20.8185 4.5748 20.4555C4.2748 20.0935 4.1748 19.675 4.2748 19.2L5.7748 11.7C5.8498 11.35 6.0248 11.0625 6.2998 10.8375C6.5748 10.6125 6.8873 10.5 7.2373 10.5H28.7623C29.1123 10.5 29.4248 10.6125 29.6998 10.8375C29.9748 11.0625 30.1498 11.35 30.2248 11.7L31.7248 19.2C31.8248 19.675 31.7248 20.0935 31.4248 20.4555C31.1248 20.8185 30.7373 21 30.2623 21H29.9998V28.5C29.9998 28.925 29.8558 29.281 29.5678 29.568C29.2808 29.856 28.9248 30 28.4998 30C28.0748 30 27.7188 29.856 27.4318 29.568C27.1438 29.281 26.9998 28.925 26.9998 28.5V21H20.9998V28.5C20.9998 28.925 20.8563 29.281 20.5693 29.568C20.2813 29.856 19.9248 30 19.4998 30H7.4998ZM8.9998 27H17.9998V21H8.9998V27Z" fill="#F08080"/>
</svg>
