<svg width="32" height="32" viewBox="0 0 32 32" fill="none" xmlns="http://www.w3.org/2000/svg">
<path fill-rule="evenodd" clip-rule="evenodd" d="M8 4C6.93913 4 5.92172 4.42143 5.17157 5.17157C4.42143 5.92172 4 6.93913 4 8V24C4 25.0609 4.42143 26.0783 5.17157 26.8284C5.92172 27.5786 6.93913 28 8 28H24C25.0609 28 26.0783 27.5786 26.8284 26.8284C27.5786 26.0783 28 25.0609 28 24V8C28 6.93913 27.5786 5.92172 26.8284 5.17157C26.0783 4.42143 25.0609 4 24 4H8ZM13.3333 10.6667C13.3333 10.313 13.4738 9.97391 13.7239 9.72386C13.9739 9.47381 14.313 9.33333 14.6667 9.33333H22.6667C23.0203 9.33333 23.3594 9.47381 23.6095 9.72386C23.8595 9.97391 24 10.313 24 10.6667C24 11.0203 23.8595 11.3594 23.6095 11.6095C23.3594 11.8595 23.0203 12 22.6667 12H14.6667C14.313 12 13.9739 11.8595 13.7239 11.6095C13.4738 11.3594 13.3333 11.0203 13.3333 10.6667ZM13.3333 16C13.3333 15.6464 13.4738 15.3072 13.7239 15.0572C13.9739 14.8071 14.313 14.6667 14.6667 14.6667H22.6667C23.0203 14.6667 23.3594 14.8071 23.6095 15.0572C23.8595 15.3072 24 15.6464 24 16C24 16.3536 23.8595 16.6928 23.6095 16.9428C23.3594 17.1929 23.0203 17.3333 22.6667 17.3333H14.6667C14.313 17.3333 13.9739 17.1929 13.7239 16.9428C13.4738 16.6928 13.3333 16.3536 13.3333 16ZM13.3333 21.3333C13.3333 20.9797 13.4738 20.6406 13.7239 20.3905C13.9739 20.1405 14.313 20 14.6667 20H22.6667C23.0203 20 23.3594 20.1405 23.6095 20.3905C23.8595 20.6406 24 20.9797 24 21.3333C24 21.687 23.8595 22.0261 23.6095 22.2761C23.3594 22.5262 23.0203 22.6667 22.6667 22.6667H14.6667C14.313 22.6667 13.9739 22.5262 13.7239 22.2761C13.4738 22.0261 13.3333 21.687 13.3333 21.3333ZM9.33333 9.33333C8.97971 9.33333 8.64057 9.47381 8.39052 9.72386C8.14048 9.97391 8 10.313 8 10.6667C8 11.0203 8.14048 11.3594 8.39052 11.6095C8.64057 11.8595 8.97971 12 9.33333 12C9.68696 12 10.0274 11.8595 10.2775 11.6095C10.5275 11.3594 10.668 11.0203 10.668 10.6667C10.668 10.313 10.5275 9.97391 10.2775 9.72386C10.0274 9.47381 9.68696 9.33333 9.33333 9.33333ZM8 16C8 15.6464 8.14048 15.3072 8.39052 15.0572C8.64057 14.8071 8.97971 14.6667 9.33333 14.6667C9.68696 14.6667 10.0274 14.8071 10.2775 15.0572C10.5275 15.3072 10.668 15.6464 10.668 16C10.668 16.3536 10.5275 16.6928 10.2775 16.9428C10.0274 17.1929 9.68829 17.3333 9.33467 17.3333C8.98104 17.3333 8.64057 17.1929 8.39052 16.9428C8.14048 16.6928 8 16.3536 8 16ZM9.33333 20C8.97971 20 8.64057 20.1405 8.39052 20.3905C8.14048 20.6406 8 20.9797 8 21.3333C8 21.687 8.14048 22.0261 8.39052 22.2761C8.64057 22.5262 8.97971 22.6667 9.33333 22.6667C9.68696 22.6667 10.0274 22.5262 10.2775 22.2761C10.5275 22.0261 10.668 21.687 10.668 21.3333C10.668 20.9797 10.5275 20.6406 10.2775 20.3905C10.0274 20.1405 9.68696 20 9.33333 20Z" fill="#2D2C39"/>
</svg>
